# xmcd
#
# Track frame offsets:
#	150
#	43852
#	141452
#	188852
#
# Disc length: 3888 seconds
#
# Revision: 0
# Processed by: cddbd v1.5.1PL0 Copyright (c) Steve Scherf et al.
# Submitted via: EasyCDDAExtractor 4.6.9.1
#
DISCID=3a0f2e04
DTITLE=KBS국악관현악단 - KBS국악관현악단의 창작음악
DYEAR=1900
DGENRE=
TTITLE0=김용진작곡 "가시리"
TTITLE1=이건용작곡 "만수산드렁칡"
TTITLE2=창과 관현악 "화초사거리"
TTITLE3=이해식작곡 "두레사리"
EXTD=
EXTT0=
EXTT1=
EXTT2=
EXTT3=
PLAYORDER=
